<?xml version="1.0" encoding="UTF-8" standalone="no"?>
<!-- Created with Inkscape (http://www.inkscape.org/) -->

<svg
   xmlns:dc="http://purl.org/dc/elements/1.1/"
   xmlns:cc="http://creativecommons.org/ns#"
   xmlns:rdf="http://www.w3.org/1999/02/22-rdf-syntax-ns#"
   xmlns:svg="http://www.w3.org/2000/svg"
   xmlns="http://www.w3.org/2000/svg"
   xmlns:sodipodi="http://sodipodi.sourceforge.net/DTD/sodipodi-0.dtd"
   xmlns:inkscape="http://www.inkscape.org/namespaces/inkscape"
   width="210mm"
   height="297mm"
   viewBox="0 0 210 297"
   version="1.1"
   id="svg8"
   inkscape:version="0.92.4 (5da689c313, 2019-01-14)"
   sodipodi:docname="fipoff.svg">
  <defs
     id="defs2" />
  <sodipodi:namedview
     id="base"
     pagecolor="#ffffff"
     bordercolor="#666666"
     borderopacity="1.0"
     inkscape:pageopacity="0.0"
     inkscape:pageshadow="2"
     inkscape:zoom="0.98994949"
     inkscape:cx="124.46817"
     inkscape:cy="389.62628"
     inkscape:document-units="mm"
     inkscape:current-layer="layer1"
     showgrid="false"
     inkscape:window-width="1920"
     inkscape:window-height="1001"
     inkscape:window-x="-9"
     inkscape:window-y="-9"
     inkscape:window-maximized="1" />
  <metadata
     id="metadata5">
    <rdf:RDF>
      <cc:Work
         rdf:about="">
        <dc:format>image/svg+xml</dc:format>
        <dc:type
           rdf:resource="http://purl.org/dc/dcmitype/StillImage" />
        <dc:title></dc:title>
      </cc:Work>
    </rdf:RDF>
  </metadata>
  <g
     inkscape:label="Layer 1"
     inkscape:groupmode="layer"
     id="layer1">
    <g
       aria-label="fipoff"
       transform="scale(0.26458333)"
       style="font-style:normal;font-variant:normal;font-weight:normal;font-stretch:normal;font-size:192px;line-height:125%;font-family:'Bauhaus 93';-inkscape-font-specification:'Bauhaus 93, ';letter-spacing:0px;word-spacing:0px;fill:#fcfcfc;fill-opacity:1;stroke:#ffa500;stroke-width:5.20200007;stroke-linecap:butt;stroke-linejoin:miter;stroke-opacity:0.94117647;stroke-miterlimit:4;stroke-dasharray:none"
       id="flowRoot815">
      <path
         d="m 202.36523,467.6893 v 36.75 h -15.65625 l 0,607.7463 h -35.0625 l 0,-651.15255 c 0,-8.9375 1.53125,-16.5625 4.59375,-22.875 3.875,-8.0625 9.75,-14.625 17.625,-19.6875 7.9375,-5.125 16.1875,-7.6875 24.75,-7.6875 l 3.75,0.0937 v 36.75 c -0.8125,-0.0625 -1.40625,-0.0937 -1.78125,-0.0937 -4.4375,0 -7.875,1.46875 -10.3125,4.40625 -2.375,2.9375 -3.5625,7.125 -3.5625,12.5625 v 3.1875 z"
         id="path823"
         inkscape:connector-curvature="0"
         sodipodi:nodetypes="cccccscccccscscc"
         style="fill:#fcfcfc;stroke:#ffa500;stroke-width:5.20200007;stroke-miterlimit:4;stroke-dasharray:none;stroke-opacity:0.94117647;fill-opacity:1" />
      <path
         d="m 252.70898,460.97055 v 651.21505 h -35.0625 V 460.97055 c 0,-24.25805 35.0625,-26.45873 35.0625,0 z m -17.4375,-63.71875 c 4.75,0 8.84375,1.6875 12.28125,5.0625 3.5,3.3125 5.25,7.25 5.25,11.8125 0,4.875 -1.65625,8.875 -4.96875,12 -3.25,3.125 -7.4375,4.6875 -12.5625,4.6875 -5.125,0 -9.34375,-1.5625 -12.65625,-4.6875 -3.25,-3.125 -4.875,-7.125 -4.875,-12 0,-4.5625 1.71875,-8.5 5.15625,-11.8125 3.5,-3.375 7.625,-5.0625 12.375,-5.0625 z"
         id="path825"
         inkscape:connector-curvature="0"
         sodipodi:nodetypes="cccccscscscscs"
         style="fill:#fcfcfc;stroke:#ffa500;stroke-width:5.20200014;stroke-miterlimit:4;stroke-dasharray:none;stroke-opacity:0.94117647;fill-opacity:1" />
      <path
         d="m 306.52148,1111.0331 h -35.0625 V 497.03305 c 0,-14.3125 3.75,-25.96875 11.25,-34.96875 4.3125,-5.1875 9.78125,-9.3125 16.40625,-12.375 6.6875,-3.0625 13.53125,-4.59375 20.53125,-4.59375 13.9375,0 25.6875,4.6875 35.25,14.0625 9.5625,9.375 14.34375,20.875 14.34375,34.5 0,13.25 -4.75,24.6875 -14.25,34.3125 -9.5,9.625 -33.75,14.4375 -33.75,14.4375 l -0.75,-35.8125 c 0,0 6.71875,-1.34375 9.28125,-4.03125 2.625,-2.6875 3.9375,-5.875 3.9375,-9.5625 0,-3.6875 -1.34375,-6.8125 -4.03125,-9.375 -2.6875,-2.625 -5.90625,-3.9375 -9.65625,-3.9375 -9,0 -13.5,6.21875 -13.5,18.65625 z"
         id="path827"
         inkscape:connector-curvature="0"
         sodipodi:nodetypes="ccsccsssscccscssc"
         style="fill:#fcfcfc;stroke:#ffa500;stroke-width:5.20200014;stroke-miterlimit:4;stroke-dasharray:none;stroke-opacity:0.94117647;fill-opacity:1" />
      <path
         d="m 428.86523,445.0018 q 19.875,0 34.03125,14.34375 14.25,14.25 14.25,34.21875 0,20.25 -14.4375,34.5 -14.34375,14.25 -34.6875,14.25 -20.34375,0 -34.78125,-14.25 -14.4375,-14.34375 -14.4375,-34.5 0,-20.53125 14.4375,-34.5 14.4375,-14.0625 35.625,-14.0625 z m -0.9375,34.59375 q -5.625,0 -9.5625,4.125 -3.9375,4.03125 -3.9375,9.9375 0,5.8125 3.9375,9.9375 4.03125,4.125 9.5625,4.125 5.625,0 9.5625,-4.125 4.03125,-4.125 4.03125,-9.9375 0,-5.90625 -3.9375,-9.9375 -3.9375,-4.125 -9.65625,-4.125 z"
         style="fill:#fcfcfc;stroke:#ffa500;stroke-width:5.20200007;stroke-miterlimit:4;stroke-dasharray:none;stroke-opacity:0.94117647;fill-opacity:1"
         id="path829" />
      <path
         d="m 542.49023,467.6893 v 36.75 h -15.65625 l 0,607.7463 h -35.0625 l 0,-651.15255 c 0,-8.9375 1.53125,-16.5625 4.59375,-22.875 3.875,-8.0625 9.75,-14.625 17.625,-19.6875 7.9375,-5.125 16.1875,-7.6875 24.75,-7.6875 l 3.75,0.0937 v 36.75 c -0.8125,-0.0625 -1.40625,-0.0937 -1.78125,-0.0937 -4.4375,0 -7.875,1.46875 -10.3125,4.40625 -2.375,2.9375 -3.5625,7.125 -3.5625,12.5625 v 3.1875 z"
         id="path831"
         inkscape:connector-curvature="0"
         sodipodi:nodetypes="cccccscccccscscc"
         style="fill:#fcfcfc;stroke:#ffa500;stroke-width:5.20200007;stroke-miterlimit:4;stroke-dasharray:none;stroke-opacity:0.94117647;fill-opacity:1" />
      <path
         d="m 608.49023,467.6893 v 36.75 h -15.65625 l 0,607.7463 h -35.0625 l 0,-651.15255 c 0,-8.9375 1.53125,-16.5625 4.59375,-22.875 3.875,-8.0625 9.75,-14.625 17.625,-19.6875 7.9375,-5.125 16.1875,-7.6875 24.75,-7.6875 l 3.75,0.0937 v 36.75 c -0.8125,-0.0625 -1.40625,-0.0937 -1.78125,-0.0937 -4.4375,0 -7.875,1.46875 -10.3125,4.40625 -2.375,2.9375 -3.5625,7.125 -3.5625,12.5625 v 3.1875 z"
         id="path833"
         inkscape:connector-curvature="0"
         sodipodi:nodetypes="cccccscccccscscc"
         style="fill:#fcfcfc;stroke:#ffa500;stroke-width:5.20200007;stroke-miterlimit:4;stroke-dasharray:none;stroke-opacity:0.94117647;fill-opacity:1" />
    </g>
  </g>
</svg>
